<svg id="Layer_1" data-name="Layer 1" width="120" height="120" xmlns="http://www.w3.org/2000/svg" preserveAspectRatio="xMidYMid" class="uil-ocf"><defs><style>@keyframes two{0%{-ms-transform:scale(1,1);-webkit-transform:scale(1,1);transform:scale(1,1)}50%{-ms-transform:scale(-1,1);-webkit-transform:scale(-1,1);transform:scale(-1,1)}}</style></defs><path d="M4.18 95.43L25.7 28.94h7.06l7.06 39 8.4-26.53h6.38C57 55.8 60.32 63.86 64 68.57l6.05-17.8h7.06L69.73 73.6c21.85 17.46 52.1-7.39 35.29-32.24-9.08-13.43-30.92-15.45-41.34 0h-7.4c12.1-24.85 49.41-21.16 57.81 4.7 7.73 24.52-12.1 40.3-29.58 39.63a30.22 30.22 0 0 1-17.14-5c-1.68 5-3 9.74-4.37 14.44h-6.38l5.71-18.47c-5-5.37-9.08-12.43-10.76-24.18l-9.4 28.18h-7.74l-6.72-39.3-17.14 54.08z" style="animation:two 5s infinite;transform-origin:50% 50%;-ms-transform-origin:50% 50%;-webkit-transform-origin:50% 50%" display="inline-block" fill="#991e21"/></svg>