<svg xmlns="http://www.w3.org/2000/svg" width="154" height="79" viewBox="0 0 154 79">
  <g id="Group_1" data-name="Group 1" transform="translate(-662 -1372)">
    <path id="Path_1" data-name="Path 1" d="M68.8,55.1,62.5,32h-14c-2.2.6-3.2,2.2-3.4,4.5l1.8,5.3c1,2.4,2.6,3.8,4.7,3.8h9.9l1.4,5.9h-18L39.6,31.7H34.9l.4,2.4c-.3-.1-.5-.1-.7-.3-5.7-2.8-9.7-2.4-9.7,2.6v.4a3.4,3.4,0,0,0,.2,1.4l4.2,13.4a8.186,8.186,0,0,0,5.5,3.2,6.892,6.892,0,0,0,5.9-2.4l2.8,11.1h4.7L46,54.8H68.7v.3ZM54.4,42.9c-3.4-1-5.1-5.1-2-7.5h6.3l2.2,7.5Zm-19.2,9-.4-.4A8.618,8.618,0,0,1,32,47l-1.8-7.3c-.8-4,1.8-4.9,4.5-3.2.6.4,1.2.8,2,1.4l2.8,9.7C40.1,51.3,38.4,52.5,35.2,51.9ZM81.6,32h3.8L78.7,55.1H74.2L63.5,0h4.9l8.7,47.8S81.4,32,81.6,32Zm-67.4.2h4.9l4.5,17.2q1.2,4.2-2.4,5.7H10.1a7.025,7.025,0,0,1-4.9-4L0,32.2H4.3L9.3,49a4.342,4.342,0,0,0,2.8,2.8h5.3c1.4-.8,1.8-1.6,1.2-3.2L14.2,32.2Zm-1.7,30h-.8a2.175,2.175,0,0,1-1-.2.735.735,0,0,1-.6.2H8.7a1.1,1.1,0,0,1-.8,1.2,5.019,5.019,0,0,1-2,.4,5.019,5.019,0,0,1-2-.4,1.329,1.329,0,0,1-.8-1,1.8,1.8,0,0,1,.2-1,4.184,4.184,0,0,1,.8-1.2l.4.2c-.3.6-.5.8-.5,1s-.2.4-.2.6.2.4.6.6a3.9,3.9,0,0,0,1.6.2,3.9,3.9,0,0,0,1.6-.2q.6-.3.6-.6a.735.735,0,0,0-.2-.6,2.475,2.475,0,0,1-.4-.6l.4-1c.2.2.4.6.6.6.2.2.2.4.2.8h1.4c.2,0,.4-.2.2-.4,0-.2,0-.2.2-.4l.2-.2v1H12a.619.619,0,0,0-.2-.4.2.2,0,0,0-.2-.2v-.2l.4-.6c.2.2.2.6.4,1l.1,1.4Z" transform="translate(662 1372)"/>
    <path id="Path_2" data-name="Path 2" d="M19.2,62.2H12.3l-.2-1H19Z" transform="translate(662 1372)"/>
    <path id="Path_3" data-name="Path 3" d="M25.7,62.2H18.8l-.2-1h6.9Z" transform="translate(662 1372)"/>
    <path id="Path_4" data-name="Path 4" d="M32.2,62.2H25.3l-.2-1H32Z" transform="translate(662 1372)"/>
    <path id="Path_5" data-name="Path 5" d="M34.6,62.2H31.8v-1H34l-.8-2.6-.4-.2a7.865,7.865,0,0,1,.4-1.2h.2v.2c0,.2.4.4.8.4a1.039,1.039,0,0,1-.4.8h-.2l.6,2.4.4,1.2Z" transform="translate(662 1372)"/>
    <path id="Path_6" data-name="Path 6" d="M37.6,62.2H34.2v-1H37c0-.2-.2-.4-.6-.8l.4-.8.6.6a1.5,1.5,0,0,1,.2,1v1ZM37,63l-.6.8-1.2-.4.6-.8Z" transform="translate(662 1372)"/>
    <ellipse id="Ellipse_1" data-name="Ellipse 1" cx="4.5" cy="2.8" rx="4.5" ry="2.8" transform="translate(665.2 1395.1)"/>
    <ellipse id="Ellipse_2" data-name="Ellipse 2" cx="4.5" cy="2.8" rx="4.5" ry="2.8" transform="translate(709.7 1395.1)"/>
    <ellipse id="Ellipse_3" data-name="Ellipse 3" cx="4.5" cy="2.8" rx="4.5" ry="2.8" transform="translate(728.7 1429.8)"/>
    <ellipse id="Ellipse_4" data-name="Ellipse 4" cx="4.5" cy="2.8" rx="4.5" ry="2.8" transform="translate(738.7 1429.8)"/>
    <ellipse id="Ellipse_5" data-name="Ellipse 5" cx="4.5" cy="2.8" rx="4.5" ry="2.8" transform="translate(759.3 1429.8)"/>
    <ellipse id="Ellipse_6" data-name="Ellipse 6" cx="4.5" cy="2.8" rx="4.5" ry="2.8" transform="translate(769.4 1429.8)"/>
    <path id="Subtraction_1" data-name="Subtraction 1" d="M107.9,56.853H0v-8.7H107.9v8.7Zm-30-7.5a1.414,1.414,0,0,0-1.6,1.6v3.2a1.413,1.413,0,0,0,1.6,1.6h4.7a1.414,1.414,0,0,0,1.6-1.6v-3.2c-.077-.23-.124-.427-.165-.6a1.252,1.252,0,0,0-.236-.6,1.724,1.724,0,0,0-1.2-.4Zm-21.9.2v6.1h1.4v-2.4h4a2.173,2.173,0,0,0,1.2-.2,1.18,1.18,0,0,0,.4-1v-1.4a1.013,1.013,0,0,0-.3-.9c-.2-.2-.6-.2-1.2-.2Zm-13.1,4.7H47l.8,1.4h1.6l-3.9-6.1H44.1l-3.6,6.1h1.6l.8-1.4Zm-6.1-4.7v6.1h1.6v-6.1Zm-10.8,0v6.1h4c.59,0,1.2,0,1.4-.2a1.518,1.518,0,0,0,1-.4,2.413,2.413,0,0,0,1-1,3.778,3.778,0,0,0,.4-1.6,1.979,1.979,0,0,0-.8-2.1,3.871,3.871,0,0,0-2.8-.8Zm72,0v5.9h6.8v-1H99.6v-1.5h3v-1h-3v-1.4h5.2v-1Zm-9.2,1.8h0l5.1,4.1h1v-6.1H93.5v4.1c-.2,0-5.249-4.059-5.3-4.1h-1v6.1h1.6v-4.1Zm-22,1.6h4.8v2.5h1.3v-5.9H71.6v2.4H66.8v-2.4H65.2v5.9h1.6v-2.5Zm-50-3.4v5.9h6.5v-1H18.2v-1.5h3v-1h-3v-1.4h5.1v-1Zm-4.5,1.612h0v4.289h1.4v-6.1H12.5l-3.2,3.8-3-3.8H5.1v6.1H6.3v-4.3c0,.2,2.772,3.764,2.8,3.8h.4C9.526,54.92,12.215,51.461,12.3,51.165Zm70.3,3.289H77.7v-3.8h4.9v3.8Zm-52.6-.2H27.6v-3.8h2.6a3.109,3.109,0,0,1,1.6.4,1.807,1.807,0,0,1,.6,1.4c0,.839-.213,1.407-.6,1.6A4.015,4.015,0,0,1,30,54.254Zm16.1-1.2H43.3l1.4-2.4,1.4,2.4Zm14.6-.7H57.3v-1.6h3.4a.739.739,0,0,1,.6.2c.2,0,.2.2.2.4v.4c0,.2,0,.4-.2.4A.9.9,0,0,1,60.7,52.353Zm31.4-10.7H88.4L101,2.553h4.2l4.2,22.9,4.9-15.6h3.8c1.231,7.473,3.03,12.706,5.5,16l3.6-10.5h4.2l-4.5,13.5a14.926,14.926,0,0,0,9.394,3.458,14.52,14.52,0,0,0,12.666-7.562c2.454-4.584,1.994-10.014-1.261-14.9A14.942,14.942,0,0,0,135.359,3.47,14.188,14.188,0,0,0,123.4,9.853H119A17.426,17.426,0,0,1,135.069,0a19.7,19.7,0,0,1,10.821,3.239A17.747,17.747,0,0,1,153,12.653a19.517,19.517,0,0,1,.784,8.933,16.061,16.061,0,0,1-2.948,7.049,17.958,17.958,0,0,1-6.537,5.413,18.365,18.365,0,0,1-8.056,1.917c-.214,0-.43,0-.642-.012a17.65,17.65,0,0,1-10.1-3c-1.058,3.173-1.874,5.96-2.6,8.5h-3.8l3.4-10.9c-3.47-3.7-5.413-8.081-6.3-14.2l-5.5,16.6h-4.5l-4-23.1Z" transform="translate(662 1394.147)" fill="#981c1f"/>
    <path id="Subtraction_2" data-name="Subtraction 2" d="M148.9,8.7H102.8V0h46.1V8.7Zm-11-2.8h0l-1.4.2v.2a1.646,1.646,0,0,0,.4,1.2,1.728,1.728,0,0,0,1.2.4h4a1.646,1.646,0,0,0,1.2-.4,1.646,1.646,0,0,0,.4-1.2V5.5a9.13,9.13,0,0,1-.408-1.05A1.688,1.688,0,0,0,143.2,4.2a1.725,1.725,0,0,0-1.2-.4h-4V2.4h4.2V3l1.4-.2a1.523,1.523,0,0,0-.4-1c-.2-.2-.6-.2-1.2-.2h-3.6a1.652,1.652,0,0,0-1.2.4,1.729,1.729,0,0,0-.4,1.2v.6a1.646,1.646,0,0,0,.4,1.2,1.647,1.647,0,0,0,1.2.4h4V6.7h-4.5V5.9ZM125.7,1.4V5.9a1.647,1.647,0,0,0,.4,1.2,1.729,1.729,0,0,0,1.2.4h4.2a1.646,1.646,0,0,0,1.2-.4,1.643,1.643,0,0,0,.4-1.2V1.4h-1.6V6.3h-4.2V1.4Zm-17.5,0V7.5h1.4V5.1h4a2.165,2.165,0,0,0,1.2-.2,1.179,1.179,0,0,0,.4-1V2.5a1.521,1.521,0,0,0-.4-1c-.1-.1-.5-.1-1.1-.1Zm9.3,0V7.3h6.3v-1H119V1.4Zm-4.6,2.8h-3.4V2.6h3.4a.739.739,0,0,1,.6.2.7.7,0,0,1,.2.4v.4c0,.2,0,.4-.2.4A.893.893,0,0,1,112.9,4.2Z" transform="translate(667.1 1442.3)"/>
  </g>
</svg>
