<svg xmlns="http://www.w3.org/2000/svg" width="125.039" height="94.258"><g transform="translate(-809 712)"><g fill="#5cb4e0"><path d="M842.292-667.342l13.276-14.221 15.953-17.088"/><path d="M842.291-666.59a.752.752 0 01-.55-1.265l29.23-31.304a.752.752 0 011.1 1.026l-29.227 31.304a.751.751 0 01-.553.239z"/></g><path fill="#4fb4df" d="M900.748-667.342l-29.228-31.309"/><path d="M900.749-666.59a.75.75 0 01-.55-.239l-29.228-31.309a.752.752 0 011.1-1.026l29.228 31.305a.752.752 0 01-.55 1.265z" fill="#5cb4e0"/><path fill="#4fb4df" d="M891.269-657.111l-19.749-41.54"/><path d="M891.27-656.359a.752.752 0 01-.68-.429l-19.749-41.541a.752.752 0 011.358-.645l19.749 41.541a.752.752 0 01-.679 1.075z" fill="#5cb4e0"/><path fill="#4fb4df" d="M851.771-657.11l19.75-41.541"/><path d="M851.771-656.359a.752.752 0 01-.679-1.075l19.749-41.541a.752.752 0 011.358.645l-19.749 41.541a.752.752 0 01-.679.43z" fill="#5cb4e0"/><path fill="#4fb4df" d="M864.545-651.525l6.975-47.126"/><path d="M864.546-650.773a.717.717 0 01-.111-.008.751.751 0 01-.634-.854l6.975-47.126a.752.752 0 011.487.22l-6.975 47.126a.751.751 0 01-.742.642z" fill="#5cb4e0"/><path fill="#4fb4df" d="M878.494-651.525l-6.974-47.126"/><path d="M878.493-650.773a.751.751 0 01-.743-.642l-6.974-47.126a.752.752 0 011.487-.22l6.974 47.126a.751.751 0 01-.634.854.724.724 0 01-.11.008z" fill="#5cb4e0"/><circle cx="12.773" cy="12.773" r="12.773" transform="translate(858.746 -712)" fill="#e94723"/><path d="M871.52-647.302a9.979 9.979 0 01-4.722-1.614 10.189 10.189 0 00-2.558-1.136 10.508 10.508 0 00-2.909.011 9.685 9.685 0 01-4.868-.4 9.9 9.9 0 01-3.642-3.344 6.831 6.831 0 00-4.56-3.242 7.581 7.581 0 01-6.319-6.818 10.476 10.476 0 00-.938-2.723 10.336 10.336 0 00-1.944-2.07 9.921 9.921 0 01-3.061-3.894c-.776-2.228-.292-4.732.135-6.942l.134-.7a1.5 1.5 0 01.731-1.029l31.891-18.253a5.308 5.308 0 015.256 0l31.894 18.254a1.5 1.5 0 01.732 1.034c.048.261.1.525.149.79.416 2.177.888 4.644.119 6.849a9.913 9.913 0 01-3.061 3.894 10.325 10.325 0 00-1.943 2.07 10.465 10.465 0 00-.938 2.723 7.578 7.578 0 01-6.318 6.817 6.835 6.835 0 00-4.561 3.242 9.9 9.9 0 01-3.642 3.344 9.685 9.685 0 01-4.868.4 10.534 10.534 0 00-2.909-.011 10.216 10.216 0 00-2.559 1.136 9.969 9.969 0 01-4.721 1.612zm-8.4-5.857a8.451 8.451 0 011.727.162 12.469 12.469 0 013.393 1.444 4.936 4.936 0 006.551 0 12.472 12.472 0 013.399-1.449 12.878 12.878 0 013.787-.04 4.8 4.8 0 005.862-2.582 9.606 9.606 0 015.988-4.258 4.811 4.811 0 004.358-4.7 9.611 9.611 0 013.785-6.293 7.564 7.564 0 002.233-2.649c.5-1.442.129-3.4-.233-5.293l-.024-.124-31.29-17.907a2.292 2.292 0 00-2.267 0l-31.299 17.912-.007.036c-.372 1.926-.758 3.917-.248 5.38a7.562 7.562 0 002.233 2.649 9.608 9.608 0 013.785 6.293 4.811 4.811 0 004.358 4.7 9.607 9.607 0 015.987 4.258 4.8 4.8 0 005.862 2.582 22.073 22.073 0 012.065-.121zm-52.249 25.302a6.5 6.5 0 004.349 2.124c1.366 0 2.579-.733 2.579-2.124 0-3.06-8.446-2.807-8.446-8.4 0-2.908 2.529-5.057 5.993-5.057 2.1 0 5.335.987 5.335 3.54v1.268a.4.4 0 01-.4.4H818.1a.4.4 0 01-.4-.4v-.408c0-.834-1.188-1.391-2.377-1.391-1.517 0-2.63.784-2.63 1.922 0 3.06 8.446 2.453 8.446 8.345 0 2.857-2.2 5.285-5.968 5.285a8.27 8.27 0 01-6.17-2.781zm13.198-9.859a.5.5 0 00-.557-.556h-.61a.4.4 0 01-.4-.4v-1.929a.4.4 0 01.4-.4h2.659c1.188 0 1.719.531 1.719 1.694v4.527c0 .632-.05 1.087-.05 1.087h.05a4.925 4.925 0 014.425-2.554c2.883 0 4.5 1.492 4.5 4.906v5.025a.557.557 0 00.556.557h.61a.4.4 0 01.4.4v1.9a.4.4 0 01-.4.4h-2.659c-1.188 0-1.694-.506-1.694-1.72v-5.917c0-1.568-.43-2.63-2.048-2.63a3.627 3.627 0 00-3.49 2.68 5.811 5.811 0 00-.2 1.669v5.917h-3.211zm22.677 6.571h.4v-.1c0-1.846-.733-2.528-2.377-2.528-.582 0-1.719.152-1.719.86v.683h-2.984v-1.366c0-2.4 3.389-2.655 4.729-2.655 4.3 0 5.563 2.251 5.563 5.134v4.8a.556.556 0 00.556.557h.61a.4.4 0 01.4.4v1.9a.4.4 0 01-.4.4h-2.478c-1.189 0-1.643-.657-1.643-1.416 0-.329.025-.556.025-.556h-.05a4.2 4.2 0 01-3.894 2.276c-2.3 0-4.4-1.442-4.4-4.02.004-4.04 5.562-4.369 7.662-4.369zm-2.478 5.892c1.72 0 2.933-1.82 2.933-3.388v-.3h-.555c-1.669 0-4.324.228-4.324 2.023a1.72 1.72 0 001.95 1.665zm10.168-12.463a.5.5 0 00-.556-.556h-.61a.4.4 0 01-.4-.4v-1.929a.4.4 0 01.4-.4h2.659a1.72 1.72 0 011.72 1.72v12.965a.557.557 0 00.557.557h.585a.4.4 0 01.4.4v1.9a.4.4 0 01-.4.4h-2.634a1.719 1.719 0 01-1.719-1.719zm22.611 17.269a2.3 2.3 0 002.124-1.644l.43-.986-4.3-9.685a.6.6 0 00-.682-.455h-.382v-2.33a.4.4 0 01.4-.4h1.723a1.566 1.566 0 011.694 1.214l2.529 6.448a12.668 12.668 0 01.455 1.72h.051a15.638 15.638 0 01.43-1.72l2.2-6.448a1.594 1.594 0 011.72-1.214h1.773a.4.4 0 01.4.4v2.33h-.38a.644.644 0 00-.733.455l-4.627 11.658a4.881 4.881 0 01-4.653 3.363 4.773 4.773 0 01-3.262-1.315l1.239-2.276a2.776 2.776 0 001.851.885zm12.87-17.269a.5.5 0 00-.557-.556h-.61a.4.4 0 01-.4-.4v-1.929a.4.4 0 01.4-.4h2.659c1.188 0 1.719.531 1.719 1.694v4.527c0 .632-.05 1.087-.05 1.087h.05a4.924 4.924 0 014.424-2.559c2.883 0 4.5 1.492 4.5 4.906v5.03a.557.557 0 00.557.557h.61a.4.4 0 01.4.4v1.9a.4.4 0 01-.4.4h-2.659c-1.189 0-1.694-.506-1.694-1.72v-5.917c0-1.568-.43-2.63-2.048-2.63a3.627 3.627 0 00-3.49 2.68 5.827 5.827 0 00-.2 1.669v5.917h-3.211zm16.282 5.054a.5.5 0 00-.556-.557h-.61a.4.4 0 01-.4-.4v-1.929a.4.4 0 01.4-.4h2.558c1.138 0 1.694.531 1.694 1.442v.38a3.539 3.539 0 01-.051.556h.051a4.957 4.957 0 014.551-2.681c2.858 0 4.5 1.492 4.5 4.906v5.032a.557.557 0 00.557.557h.611a.4.4 0 01.4.4v1.9a.4.4 0 01-.4.4h-2.659a1.72 1.72 0 01-1.72-1.72v-5.917c0-1.568-.4-2.63-2.023-2.63a3.537 3.537 0 00-3.464 2.63 5.438 5.438 0 00-.253 1.719v5.917h-3.186zm22.656 1.517h.4v-.1c0-1.846-.733-2.528-2.377-2.528-.582 0-1.719.152-1.719.86v.683h-2.984v-1.366c0-2.4 3.389-2.655 4.729-2.655 4.3 0 5.563 2.251 5.563 5.134v4.8a.557.557 0 00.557.557h.61a.4.4 0 01.4.4v1.9a.4.4 0 01-.4.4h-2.482c-1.189 0-1.643-.657-1.643-1.416 0-.329.025-.556.025-.556h-.05a4.2 4.2 0 01-3.894 2.276c-2.3 0-4.4-1.442-4.4-4.02.003-4.04 5.566-4.369 7.665-4.369zm-2.479 5.892c1.72 0 2.933-1.82 2.933-3.388v-.3h-.556c-1.669 0-4.324.228-4.324 2.023a1.72 1.72 0 001.948 1.665zm-58.211-5.892h.4v-.1c0-1.846-.733-2.528-2.377-2.528-.581 0-1.719.152-1.719.86v.683h-2.984v-1.366c0-2.4 3.389-2.655 4.729-2.655 4.3 0 5.563 2.251 5.563 5.134v4.8a.556.556 0 00.556.557h.61a.4.4 0 01.4.4v1.9a.4.4 0 01-.4.4h-2.482c-1.189 0-1.643-.657-1.643-1.416 0-.329.025-.556.025-.556h-.05a4.2 4.2 0 01-3.894 2.276c-2.3 0-4.4-1.442-4.4-4.02.004-4.04 5.567-4.369 7.666-4.369zm-2.478 5.892c1.72 0 2.933-1.82 2.933-3.388v-.3h-.556c-1.669 0-4.324.228-4.324 2.023a1.72 1.72 0 001.947 1.665z" fill="#5cb4e0"/></g></svg>