<svg version="1.1" id="Layer_1" xmlns="http://www.w3.org/2000/svg" x="0" y="0" viewBox="0 0 168.4 70.6" xml:space="preserve"><style>.st0{fill:#333132}</style><g id="Layer_2_00000135651983574951595980000014760341419271659931_"><g id="Isolation_Mode"><path class="st0" d="M20 36.9v32.2l-1.8.9V36c.6.2 1.2.5 1.8.9zm-2.9 21.8c0 .7-.1 1.3-.2 1.9-.6.2-1.3.3-1.9.4-1.3.2-2.6.2-3.9 0-4.5-.7-8.3-3.7-10-7.9l-.6-1.8c.2-.1.4-.2.7-.3.3-.1.7-.3 1-.3.1.6.3 1.2.6 1.8.3.7.7 1.4 1.2 2.1 1.8 2.6 4.6 4.3 7.7 4.7 1.2.2 2.5.2 3.7-.1.2-1.9-.1-3.8-.8-5.6l-.2-.4c-.8-1.6-1.9-3-3.3-4.1-.6-.4-1.1-.8-1.8-1.2-2.9-1.5-6.3-1.6-9.3-.5 0-.7.1-1.3.2-1.9.6-.2 1.3-.3 1.9-.4 2.4-.3 4.9 0 7.1 1l1.8.9c2.2 1.4 3.9 3.3 4.9 5.7l.1.3c.9 1.8 1.2 3.7 1.1 5.7z"/><path class="st0" d="M34.7 5.7h-.9c-1.4.1-2.7.4-4 .9.4.5.7 1 1 1.5 1-.3 2-.6 3-.6v13c0 2.5-.8 5-2.3 7L30 29c-.5.4-1 .8-1.6 1.2-1.5.9-3.2 1.5-5 1.6V18.5c0-2.2-.6-4.4-1.8-6.3-.6-1-1.2-1.8-2-2.6-.5-.5-1-1-1.6-1.4-2-1.5-4.4-2.3-6.9-2.5H9.3v14.8c0 .5 0 1 .1 1.5.2 1.8.8 3.5 1.7 5 .6 1 1.2 1.8 2 2.6.5.5 1 1 1.6 1.4 2 1.5 4.4 2.3 6.9 2.5v34.6l1.8-1.2V33.6c2.5-.2 4.9-1 6.9-2.5.6-.4 1.1-.9 1.6-1.4l.5-.6c.6-.6 1.1-1.3 1.5-2.1.9-1.5 1.5-3.2 1.7-5 .1-.5.1-1 .1-1.5V5.7h-1zM21.5 31.8c-1.8-.1-3.5-.7-5-1.6-.6-.3-1.1-.7-1.6-1.2-2.5-2.1-3.9-5.2-3.9-8.5v-13c1 .1 2.1.3 3 .6.7.3 1.4.6 2 1 .6.3 1.1.7 1.6 1.2 2.1 1.8 3.4 4.3 3.8 7 .1.5.1 1 .1 1.5v13zm.9-27L20 2.4 22.4 0l2.4 2.4z"/><path class="st0" d="M22.4 8.6l-1.9-1.9 1.9-1.9 2 1.9zm26.3 27.6c0 .6-.4 1-1 1h-5.6v.1c.6 0 1.2.5 1.2 1.2v12.7c.1.6-.4 1.1-1 1.2-.6.1-1.1-.4-1.2-1V37.2h-4.5c-.6.1-1.1-.3-1.1-.9-.1-.6.3-1.1.9-1.1h11.2c.5-.1 1 .4 1.1.9v.1zm23.7 4.5l-3.7 10.9c-.2.6-.9 1-1.5.7-.4-.1-.6-.4-.7-.7l-2.7-8.1-2.7 8.1c-.2.6-.9 1-1.5.7-.4-.1-.6-.4-.7-.7l-3.7-10.9c-.3-.5-.1-1.2.4-1.5.5-.3 1.2-.1 1.5.4.1.1.1.2.1.3l3.1 10.2V50c-.1-.7-.1-1.4.1-2.1l2.3-7.3c.1-.5.6-.9 1.1-.9.5 0 1 .4 1.1.9l2.9 9.6.1-.2c-.2-.7-.1-1.4.1-2.1l2.5-7.9c.1-.5.7-.9 1.2-.8.1 0 .1 0 .2.1.5.2.8.8.6 1.3 0 0-.1 0-.1.1zM93.1 45v6.2c.1.6-.3 1.1-.9 1.2H92c-.6 0-1.1-.4-1.1-1v-1.1h-.1c-.9 1.5-2.6 2.4-4.4 2.3-3.6 0-6.5-2.8-6.6-6.4V46c-.2-3.6 2.6-6.7 6.2-6.9h.7c3.5-.1 6.4 2 6.4 5.9zm-2.1.7v-.4c0-2.7-1.6-4.3-4.8-4.3-1.6 0-3.5.5-4.4 1.7l.1.1c.5-.6 1.2-.9 2-.9-1.2.9-1.9 2.4-1.9 3.9-.1 2.4 1.7 4.5 4.2 4.7h.5c2.7 0 4.3-1.7 4.3-4.8zm19.3-5.2c-.1.5-.6.9-1.1.8h-.1c-.3-.1-.7-.2-1.1-.2-2.2 0-3.5 2-3.5 5.7v4.5c.1.6-.4 1.1-1 1.2-.6.1-1.1-.4-1.2-1V40.3c-.1-.6.4-1.1 1-1.2.6-.1 1.1.4 1.2 1v2.3h.1c.1-1.9 1.6-3.4 3.5-3.4.5 0 1 .1 1.4.3.5 0 .9.5.9 1-.1 0-.1.1-.1.2zm16.2 0c-.1.5-.6.9-1.1.8h-.1c-.3-.1-.7-.2-1.1-.2-2.2 0-3.5 2-3.5 5.7v4.5c.1.6-.4 1.1-1 1.2-.6.1-1.1-.4-1.2-1V40.3c-.1-.6.4-1.1 1-1.2.6-.1 1.1.4 1.2 1v2.3h.1c.1-1.9 1.6-3.4 3.5-3.4.5 0 1 .1 1.4.3.5 0 .9.5.9 1-.1.1-.1.1-.1.2zm20 4.5v6.2c.1.6-.3 1.1-.9 1.2h-.2c-.6 0-1.1-.4-1.1-1v-1.1h-.1c-.9 1.5-2.6 2.4-4.4 2.3-3.6.1-6.6-2.8-6.6-6.4V46c-.2-3.6 2.6-6.7 6.2-6.9h.7c3.5-.1 6.4 2 6.4 5.9zm-2.1.7v-.4c0-2.7-1.6-4.3-4.8-4.3-1.6-.1-3.3.5-4.4 1.7l.1.1c.5-.6 1.2-.9 2-.9-1.2.9-1.9 2.4-1.9 3.9-.1 2.4 1.7 4.5 4.2 4.7h.5c2.7 0 4.3-1.7 4.3-4.8zm24-10.7v11.4c0 3.4-2.7 6.2-6.2 6.2h-.4c-3.6.1-6.6-2.6-6.8-6.2v-.5c-.1-3.6 2.7-6.7 6.4-6.8h.4c1.3-.1 2.6.4 3.5 1.5.5.5.8 1.1.8 1.8l.1.2V35c-.1-.6.4-1.1 1-1.2h.1c.6 0 1 .5 1 1 .1.1.1.1.1.2zm-2.2 10.8c0-2.9-1.5-4.8-4.8-4.8-1.7-.1-3.3.5-4.4 1.7l.1.1c.5-.6 1.2-.9 2-.9-1.2.9-1.9 2.4-1.9 3.9-.1 2.5 1.8 4.7 4.3 4.8h.4c2.3.1 4.2-1.6 4.3-3.9v-.9zM52 64.7h3.5v.6h-3v1.9h2.3v.6h-2.3v2.7H52v-5.8zm9 0h.6l2.5 5.8h-.6l-.8-1.9H60l-.8 1.9h-.6l2.4-5.8zm1.4 3.4l-1.1-2.6-1.2 2.6h2.3zm6.1-3.4c.5-.1.9-.1 1.4-.1 1.2 0 2.7.3 2.7 1.9 0 .9-.6 1.7-1.6 1.8l1.5 2.1h-.7l-1.4-2h-1.3v2h-.6v-5.7zm1.6 3.2c.8 0 1.9-.2 1.9-1.4s-1.1-1.4-1.9-1.4c-.3 0-.7 0-1 .1v2.6c.3.1.7.1 1 .1zm7.2-3.2h.6l2.1 3 2.1-3h.6v5.8h-.6v-4.9l-1.9 2.8h-.4l-1.9-2.7v4.8h-.6v-5.8zm14.9 0h4.3v.6h-1.8v5.2h-.6v-5.2h-1.9v-.6zm10.4-.1c2.5 0 2.4 2.5 2.4 3s.1 3-2.4 3-2.5-2.5-2.5-3-.1-3 2.5-3zm0 5.4c1.9 0 1.9-2 1.9-2.5s0-2.5-1.9-2.5-1.9 2-1.9 2.5-.1 2.5 1.9 2.5zm11.6-5.3h4.3v.6h-1.8v5.2h-.6v-5.2h-1.9v-.6zm9.4 0h.6l2.5 5.8h-.6l-.8-1.9h-2.7l-.8 1.9h-.6l2.4-5.8zm1.4 3.4l-1.2-2.6-1.2 2.6h2.4zm6.2-3.4c.5-.1 1.1-.1 1.6-.2 1.2 0 2.4.3 2.4 1.6 0 .6-.3 1.1-.9 1.3.7.1 1.2.7 1.2 1.5 0 1.4-1.5 1.7-2.8 1.7-.5 0-1 0-1.5-.1v-5.8zm1.5 5.3c.9 0 2.3-.2 2.3-1.2s-.8-1.2-1.8-1.2h-1.4V70h.9zm-.9-2.9h1.6c.6 0 1.2-.3 1.2-1s-1.1-1-1.9-1c-.3 0-.6 0-1 .1l.1 1.9zm8.4-2.4h.6v5.2h2.8v.5h-3.4v-5.7zm8.2 0h3.5v.6h-3v2h2.3v.5H149V70h3v.5h-3.5v-5.8z"/></g></g></svg>