<?xml version="1.0" standalone="no"?>
<!DOCTYPE svg PUBLIC "-//W3C//DTD SVG 20010904//EN"
 "http://www.w3.org/TR/2001/REC-SVG-20010904/DTD/svg10.dtd">
<svg version="1.0" xmlns="http://www.w3.org/2000/svg"
 width="1056.000000pt" height="1056.000000pt" viewBox="0 0 1056.000000 1056.000000"
 preserveAspectRatio="xMidYMid meet">
<metadata>
Created by potrace 1.14, written by Peter Selinger 2001-2017
</metadata>
<g transform="translate(0.000000,1056.000000) scale(0.100000,-0.100000)"
fill="#000000" stroke="none">
<path d="M7288 8625 c-3 -3 -32 -7 -64 -10 -66 -5 -126 -12 -164 -19 -14 -3
-43 -8 -65 -11 -22 -3 -53 -8 -70 -12 -16 -3 -37 -6 -45 -7 -9 -1 -20 -5 -25
-8 -6 -3 -28 -8 -50 -12 -22 -4 -53 -11 -70 -16 -16 -6 -70 -21 -120 -36 -160
-46 -389 -143 -546 -232 -143 -80 -382 -248 -461 -323 -13 -13 -51 -49 -84
-79 -55 -52 -119 -119 -204 -215 -20 -22 -64 -78 -98 -125 -34 -47 -66 -89
-70 -95 -40 -52 -186 -301 -213 -365 -6 -13 37 -15 348 -15 327 0 355 2 364
18 9 16 91 125 128 170 189 231 456 451 686 567 28 14 53 30 57 35 4 6 8 7 8
2 0 -4 11 0 25 9 14 9 25 12 25 8 0 -5 4 -4 8 2 9 14 212 94 302 118 36 10 76
22 90 27 14 4 42 11 64 14 21 3 42 7 46 10 4 2 32 7 61 11 30 3 57 8 60 10 3
1 37 6 75 9 38 4 85 9 104 11 87 9 339 3 455 -11 96 -11 110 -14 157 -24 27
-6 51 -11 55 -10 5 1 10 0 13 -1 3 -1 14 -3 24 -5 30 -6 179 -45 196 -52 8 -4
18 -7 23 -8 4 -2 8 -3 10 -5 1 -1 11 -3 22 -5 10 -2 28 -8 40 -13 11 -6 43
-18 70 -27 72 -24 375 -175 375 -186 0 -5 5 -9 11 -9 23 0 239 -155 334 -240
91 -81 206 -203 265 -280 19 -25 37 -47 40 -50 36 -35 179 -269 251 -410 55
-107 126 -275 134 -315 3 -11 9 -29 14 -40 11 -22 59 -186 66 -226 3 -13 7
-35 10 -49 20 -95 32 -182 40 -296 3 -42 8 -80 10 -85 3 -4 1 -10 -4 -13 -5
-3 -6 -21 -2 -38 8 -38 7 -71 -3 -87 -4 -6 -2 -11 4 -11 6 0 9 -3 6 -8 -2 -4
-7 -39 -11 -77 -11 -125 -13 -137 -39 -270 -26 -130 -96 -344 -136 -417 -6
-10 -10 -22 -10 -26 0 -8 -55 -112 -120 -227 -25 -45 -121 -183 -153 -223
-226 -270 -422 -436 -704 -595 -183 -104 -454 -207 -638 -242 -218 -42 -285
-48 -480 -48 -133 0 -225 5 -305 17 -104 14 -157 25 -244 47 -22 6 -46 12 -55
14 -124 26 -396 140 -556 233 -116 67 -277 176 -331 224 l-21 19 184 552 c101
304 186 559 190 567 3 8 7 20 8 26 2 6 78 237 170 513 92 276 165 504 162 507
-2 3 -15 5 -28 5 -13 0 -35 0 -49 0 -14 0 -40 0 -57 0 -18 -1 -49 -1 -68 -1
-19 0 -42 0 -50 0 -8 0 -22 0 -30 0 -8 0 -39 0 -67 0 -29 0 -66 -1 -83 -3 -16
-1 -40 1 -52 5 -12 4 -25 3 -28 -3 -4 -5 -11 -6 -17 -3 -14 9 -98 9 -125 0
-13 -4 -24 -20 -31 -44 -8 -31 -90 -271 -243 -712 -17 -47 -32 -92 -34 -100
-2 -8 -38 -114 -80 -235 -42 -121 -78 -224 -79 -230 -2 -5 -6 -17 -9 -25 -3
-8 -18 -51 -32 -95 -15 -44 -31 -89 -35 -100 -5 -11 -17 -46 -26 -77 -18 -60
-30 -71 -41 -40 -4 9 -13 23 -20 30 -22 23 -73 100 -73 111 0 6 -3 11 -8 11
-4 0 -16 17 -27 38 -11 20 -22 39 -25 42 -11 11 -145 275 -178 350 -29 67 -73
172 -82 195 -4 11 -13 34 -20 50 -7 17 -28 75 -47 130 -18 55 -37 107 -40 115
-7 18 -6 14 -22 70 -7 25 -12 45 -10 45 1 0 -3 9 -9 21 -6 11 -13 32 -16 45
-3 13 -22 80 -42 149 -32 111 -48 170 -59 220 -2 8 -11 47 -20 85 -9 39 -18
77 -20 85 -2 8 -9 38 -15 65 -7 28 -14 59 -16 70 -1 11 -5 29 -8 40 -7 31 -38
177 -42 203 -4 23 -10 55 -19 95 -2 12 -6 38 -9 57 -2 19 -7 42 -10 50 -2 8
-7 33 -10 55 -7 50 -15 97 -20 111 -3 7 -100 10 -307 10 l-302 -1 -23 -70
c-60 -187 -138 -431 -140 -441 -1 -7 -25 -83 -52 -170 -60 -191 -66 -209 -62
-209 2 0 -2 -10 -9 -23 -7 -13 -14 -31 -16 -40 -2 -9 -10 -37 -18 -62 -16 -46
-79 -247 -83 -265 -1 -5 -37 -118 -79 -250 -42 -132 -83 -260 -90 -285 -7 -25
-25 -83 -41 -130 -15 -47 -29 -89 -30 -95 -3 -14 -42 -141 -59 -190 -7 -22
-27 -85 -44 -140 -34 -110 -50 -144 -52 -110 0 11 -2 27 -4 35 -1 8 -5 31 -9
50 -12 72 -17 97 -31 170 -7 41 -17 93 -20 115 -4 22 -8 45 -9 50 -10 43 -16
75 -20 105 -3 19 -8 49 -11 65 -14 71 -48 253 -52 280 -6 36 -11 58 -13 65 -1
3 -2 9 -1 13 1 5 -3 25 -8 45 -6 20 -12 55 -15 77 -3 22 -10 63 -16 90 -6 28
-13 64 -16 80 -19 114 -48 271 -60 330 -8 39 -17 86 -20 105 -2 19 -7 46 -9
60 -14 74 -26 138 -30 160 -3 14 -9 50 -15 80 -6 30 -12 66 -15 80 -3 14 -7
42 -10 62 -3 20 -9 56 -14 80 -6 24 -12 54 -14 68 -7 36 -25 140 -32 175 -2
17 -7 41 -10 55 -3 14 -8 41 -11 60 -3 19 -7 42 -10 51 -2 9 -7 32 -9 50 -3
19 -7 45 -10 59 -3 14 -8 39 -10 55 -3 17 -7 41 -10 55 -3 14 -8 41 -11 60 -3
19 -7 42 -10 50 -3 8 -7 27 -9 42 -4 27 -22 133 -31 176 -2 12 -6 34 -9 50 -3
15 -10 50 -15 77 -5 28 -12 66 -15 85 -3 19 -15 85 -27 145 -11 61 -21 117
-23 125 -2 13 -30 15 -176 18 -209 3 -200 3 -369 0 l-134 -3 -13 -35 c-7 -19
-40 -123 -73 -230 -34 -107 -67 -208 -73 -225 -6 -16 -12 -34 -13 -40 -1 -5
-11 -37 -22 -70 -11 -33 -52 -161 -92 -285 -39 -124 -82 -256 -95 -295 -13
-38 -60 -185 -105 -325 -45 -140 -84 -262 -87 -270 -3 -8 -7 -19 -9 -25 -10
-39 -56 -183 -63 -195 -10 -18 -26 -82 -23 -92 1 -5 -2 -8 -6 -8 -5 0 -9 -6
-9 -12 0 -7 -35 -121 -78 -253 -44 -132 -80 -244 -81 -250 -1 -5 -29 -93 -62
-195 -160 -493 -216 -666 -218 -675 -1 -5 -16 -50 -32 -100 -17 -49 -67 -205
-112 -345 -45 -140 -91 -282 -102 -315 -11 -33 -21 -64 -22 -70 -1 -5 -35
-111 -75 -234 -40 -123 -74 -229 -76 -235 -1 -6 -5 -18 -8 -26 -8 -22 -161
-493 -163 -505 -1 -5 -10 -32 -19 -60 -10 -27 -19 -54 -20 -60 -1 -5 -5 -17
-8 -25 -3 -8 -38 -116 -77 -240 -39 -124 -74 -232 -77 -240 -4 -8 -7 -17 -8
-20 -2 -8 -65 -213 -70 -228 -3 -7 -4 -13 -4 -15 0 -1 -7 -19 -15 -39 -9 -21
-16 -40 -16 -43 0 -3 134 -5 298 -5 l298 0 39 123 c22 67 40 124 40 127 3 11
68 220 90 285 28 85 98 306 101 320 1 6 22 69 45 140 24 72 43 132 44 135 5
21 41 135 57 180 11 30 22 64 24 75 2 12 17 60 34 108 17 48 32 98 34 110 3
12 5 23 7 25 1 1 2 5 4 10 1 4 4 14 7 22 4 8 25 76 48 150 23 74 44 142 46
150 3 8 5 15 4 15 -1 0 5 18 13 40 9 22 41 121 72 220 61 195 119 376 140 440
7 22 34 108 60 190 26 83 61 191 77 240 16 50 31 95 32 100 1 6 7 26 13 45 7
19 41 130 78 245 36 116 70 221 75 235 5 14 36 111 68 215 33 105 82 258 108
340 26 83 49 155 50 160 1 6 23 72 48 149 25 76 48 148 51 160 2 11 14 50 26
86 11 36 23 72 25 80 3 8 5 16 5 17 0 2 6 18 15 38 8 19 11 35 8 35 -4 0 -2 6
4 13 5 6 13 27 17 45 3 17 11 32 16 32 5 0 8 -3 7 -7 -2 -8 9 -84 18 -128 2
-11 6 -36 9 -55 3 -19 7 -44 9 -55 2 -11 7 -38 11 -60 10 -63 14 -86 25 -145
5 -30 12 -71 14 -90 3 -19 5 -35 6 -35 2 0 7 -24 14 -70 4 -23 8 -50 10 -62 5
-25 16 -91 20 -118 2 -11 8 -47 14 -80 16 -84 23 -126 27 -158 2 -16 6 -40 10
-55 8 -40 14 -72 20 -112 3 -20 8 -47 10 -60 3 -14 8 -41 11 -60 3 -19 14 -84
24 -145 11 -60 22 -126 25 -145 3 -19 8 -42 10 -50 2 -8 6 -31 9 -50 3 -19 8
-46 10 -60 5 -29 17 -96 21 -125 2 -11 15 -85 29 -165 14 -80 28 -163 31 -184
4 -21 9 -48 11 -60 2 -11 7 -37 10 -56 2 -19 9 -55 14 -80 5 -25 12 -63 15
-85 4 -22 9 -53 11 -70 3 -16 9 -52 14 -80 5 -27 12 -65 15 -82 3 -18 8 -48
11 -65 3 -18 8 -46 10 -63 2 -16 8 -50 14 -75 6 -25 12 -63 15 -85 2 -22 7
-53 10 -70 23 -121 94 -530 95 -547 0 -5 164 -8 364 -8 l363 0 28 88 c15 48
31 92 34 97 3 6 6 15 7 20 2 15 202 622 219 665 13 32 80 235 90 270 2 8 34
103 70 210 36 107 67 202 69 211 3 9 48 146 101 305 53 159 98 296 100 304 2
8 4 16 5 18 2 1 3 5 4 10 1 4 4 12 7 17 5 8 14 36 24 75 14 57 122 360 128
360 4 0 7 -6 6 -12 -2 -7 3 -47 10 -88 17 -93 15 -87 36 -195 10 -49 19 -99
21 -110 2 -11 11 -47 19 -80 9 -33 18 -71 21 -85 21 -107 110 -385 178 -557
122 -311 305 -636 478 -850 32 -40 58 -75 58 -78 0 -3 10 -16 23 -29 12 -13
47 -52 77 -86 30 -35 61 -69 68 -77 13 -13 9 -62 -6 -88 -4 -5 -7 -15 -8 -21
-1 -6 -14 -51 -30 -100 -15 -49 -28 -93 -30 -99 -1 -5 -9 -30 -17 -55 -14 -42
-70 -219 -72 -230 -4 -19 -58 -191 -68 -215 -6 -16 -12 -36 -13 -43 -1 -6 -23
-78 -49 -160 -39 -124 -66 -211 -80 -257 -1 -5 -3 -13 -4 -17 -1 -5 -8 -25
-16 -45 -7 -21 -28 -87 -46 -148 -17 -60 -36 -115 -41 -121 -5 -7 -8 -16 -7
-20 1 -5 -1 -16 -4 -24 -5 -13 -37 -121 -37 -125 0 -1 138 -2 307 -1 264 1
306 3 308 16 2 8 11 42 21 75 10 33 19 62 19 65 11 44 62 216 96 326 11 33 21
69 24 80 2 10 13 51 25 89 12 39 26 86 31 105 6 19 19 60 29 90 10 30 44 136
75 235 96 303 88 283 113 272 12 -6 22 -14 22 -19 0 -4 4 -8 10 -8 5 0 34 -15
63 -34 59 -38 234 -129 312 -163 28 -12 76 -33 108 -47 31 -14 57 -22 57 -19
0 3 6 0 13 -6 8 -6 22 -12 33 -14 10 -2 26 -7 34 -10 93 -37 335 -97 445 -112
22 -2 54 -7 70 -11 32 -6 58 -8 200 -20 125 -10 433 -11 535 -1 193 18 172 15
275 32 22 4 72 13 110 22 39 8 78 16 87 18 69 15 327 96 388 122 8 3 17 7 20
8 70 24 321 146 387 188 24 15 45 27 48 27 9 0 120 74 123 83 2 4 8 7 13 7 9
0 170 116 179 130 3 4 10 9 16 11 42 15 285 253 414 405 66 77 180 238 180
254 0 5 3 10 8 10 7 0 14 12 65 100 40 71 135 267 153 315 9 28 21 55 24 60 8
12 23 70 18 71 -2 0 2 7 8 15 18 21 84 272 100 374 2 11 8 49 14 84 18 107 23
177 24 391 1 187 -5 327 -19 405 -2 17 -12 75 -20 130 -25 160 -70 341 -123
500 -14 44 -27 82 -28 85 0 3 -5 16 -11 30 -6 14 -21 50 -33 80 -26 67 -96
219 -110 240 -6 8 -16 26 -22 40 -32 64 -174 290 -214 339 -7 9 -43 54 -80
101 -114 143 -335 357 -479 465 -22 16 -46 35 -53 42 -7 7 -17 13 -22 13 -5 0
-17 8 -27 18 -32 33 -275 177 -403 239 -69 33 -174 79 -235 103 -60 23 -119
46 -130 50 -11 4 -47 16 -80 25 -33 10 -71 22 -85 26 -30 10 -137 37 -171 43
-13 2 -24 5 -24 6 0 1 -11 3 -25 5 -14 2 -36 6 -50 8 -25 5 -68 12 -125 22
-16 3 -50 8 -75 11 -25 3 -63 7 -85 10 -53 7 -531 15 -537 9z"/>
</g>
</svg>
